<?xml version="1.0" encoding="UTF-8"?>
<svg xmlns="http://www.w3.org/2000/svg" xmlns:xlink="http://www.w3.org/1999/xlink" id="Group_1370" data-name="Group 1370" width="260.133" height="123.899" viewBox="0 0 260.133 123.899">
  <defs>
    <clipPath id="clip-path">
      <rect id="Rectangle_1099" data-name="Rectangle 1099" width="260.133" height="123.899" fill="#fff"></rect>
    </clipPath>
  </defs>
  <g id="Group_1369" data-name="Group 1369" clip-path="url(#clip-path)">
    <path id="Path_4924" data-name="Path 4924" d="M35.149,71.858a21.122,21.122,0,0,1,.923-2.4,12.121,12.121,0,0,1,4.069-4.618,14.122,14.122,0,0,1,6.839-2.366l1.587-.117H48.6l1.646.117a14.225,14.225,0,0,1,6.84,2.366,12.259,12.259,0,0,1,4.039,4.618,14.35,14.35,0,0,1,.924,2.4,19.507,19.507,0,0,1,.664,3.031,17.769,17.769,0,0,1,.144,2.481A18,18,0,0,1,61.9,83.4a15.337,15.337,0,0,1-2.77,5.05,12.648,12.648,0,0,1-4.445,3.492,13.48,13.48,0,0,1-5.858,1.3h-.434a13.429,13.429,0,0,1-5.887-1.3,12.709,12.709,0,0,1-4.443-3.492,15.863,15.863,0,0,1-2.771-5.05,19.841,19.841,0,0,1-.952-6.032,23.575,23.575,0,0,1,.146-2.481,22.5,22.5,0,0,1,.663-3.031m213.494,8.657V93.358l-9.84.461a25.844,25.844,0,0,1-5.194-.461,8.692,8.692,0,0,1-4.013-1.934,5.632,5.632,0,0,1-1.27-2.078,6.512,6.512,0,0,1,0-4.82,5.4,5.4,0,0,1,1.27-2.078,7.814,7.814,0,0,1,4.013-1.934,23.893,23.893,0,0,1,5.194-.462Zm0-7.214-.894-.115c-3.607-.347-6.9-.548-9.956-.548A45.119,45.119,0,0,0,227.346,73.7a15.023,15.023,0,0,0-7.56,3.752,10.586,10.586,0,0,0-2.367,4.3,17.561,17.561,0,0,0-.953,5.859,14.588,14.588,0,0,0,1.5,6.78,9.624,9.624,0,0,0,1.442,1.964,10.741,10.741,0,0,0,1.876,1.673,20.6,20.6,0,0,0,8.283,2.828,67.657,67.657,0,0,0,10.938.779,130.546,130.546,0,0,0,14.8-.894,6.518,6.518,0,0,0,2.829-.923,5.073,5.073,0,0,0,.981-.924,4.172,4.172,0,0,0,.606-1.125,11.392,11.392,0,0,0,.4-3.752V76.187c0-1.847-.029-3.29-.115-4.3A21.247,21.247,0,0,0,259,66.4a18.677,18.677,0,0,0-1.875-4.156c-1.876-2.943-4.964-5.136-9.234-6.609a44.819,44.819,0,0,0-13.681-2.047h-2.6a64.511,64.511,0,0,0-11.255-17.4A83.628,83.628,0,0,0,203.8,22.135a115.243,115.243,0,0,0-21.3-10.909,151.692,151.692,0,0,0-25.483-7.358A197.281,197.281,0,0,0,127.871.231C125.13.115,121.9.03,118.2,0c-3.7.03-6.927.115-9.668.231a184.29,184.29,0,0,0-42.1,6.812A124.467,124.467,0,0,0,32.985,21.874Q18.485,31.356,10.1,43.866A60.219,60.219,0,0,0,3.376,57.2,54.879,54.879,0,0,0,.23,71.743,50.546,50.546,0,0,0,0,76.909,49.144,49.144,0,0,0,3.376,95.376a41.176,41.176,0,0,0,6.811,11.313,43.35,43.35,0,0,0,10.042,8.657,57.673,57.673,0,0,0,19.422,7.417,45.908,45.908,0,0,0,17.258.576c6-.98,10.534-3.058,13.534-6.2a14.89,14.89,0,0,0,2.627-3.925,13.856,13.856,0,0,0,1.124-4.789,13.056,13.056,0,0,0-1.991-7.851,18.075,18.075,0,0,0-5.426-5.2l.26-.23a22.208,22.208,0,0,0,5.282-7.589,25.026,25.026,0,0,0,1.9-9.813l-.03-1.645a24.5,24.5,0,0,0-1.471-7.128,21.832,21.832,0,0,0-3.406-6.032H70.76a10.05,10.05,0,0,0,3.06-.375,2.4,2.4,0,0,0,.894-.491,3.247,3.247,0,0,0,.75-.779,3.48,3.48,0,0,0,.519-1.27,8.278,8.278,0,0,0,.232-1.759,7.8,7.8,0,0,0-.232-1.761,3.9,3.9,0,0,0-.519-1.3,3.43,3.43,0,0,0-.75-.808,3.7,3.7,0,0,0-.894-.462,9.739,9.739,0,0,0-3.06-.345H48.6l-2.134.087a30.156,30.156,0,0,0-9.323,2.193,25.52,25.52,0,0,0-7.243,4.79,22.611,22.611,0,0,0-4.848,6.9,24.211,24.211,0,0,0-2.02,8.543l-.057,1.645a25,25,0,0,0,1.9,9.813,22.174,22.174,0,0,0,5.281,7.589,24.267,24.267,0,0,0,8.08,4.936,29.444,29.444,0,0,0,10.215,1.759h.288a30.39,30.39,0,0,0,8.456-1.183,8.8,8.8,0,0,1,3.146,2.28,4.972,4.972,0,0,1,1.241,3.116l-.058.809v.231a5.355,5.355,0,0,1-2.106,3.145,13.924,13.924,0,0,1-6.581,2.4,33.9,33.9,0,0,1-10.475-.4,45.673,45.673,0,0,1-6.089-1.357q-1.819-.606-3.636-1.3-10.562-4.329-16.074-12.467c-3.781-5.541-5.657-12.265-5.685-20.2,0-1.387.058-2.8.2-4.272a46.866,46.866,0,0,1,8.108-22.8,63.4,63.4,0,0,1,13.766-14.6,92.183,92.183,0,0,1,20-11.831A134.741,134.741,0,0,1,78.58,15.094a183.444,183.444,0,0,1,30.532-4.041c2.655-.116,5.714-.232,9.091-.232s6.436.115,9.09.232a179.719,179.719,0,0,1,35.9,5.309,122.864,122.864,0,0,1,28.686,11.226A78.667,78.667,0,0,1,212.252,43.4,52.246,52.246,0,0,1,222.7,60.6h.029a1.938,1.938,0,0,0,.347.692,3.186,3.186,0,0,0,.722.779,3.493,3.493,0,0,0,.923.491,9.839,9.839,0,0,0,3.031.375l6.725-.029c3.9.029,7.041.721,9.348,2.164a9.392,9.392,0,0,1,3.059,2.973,10.52,10.52,0,0,1,1.617,4.329Z" fill="#fff"></path>
    <path id="Path_4925" data-name="Path 4925" d="M238.918,82.018a21.509,21.509,0,0,0-1.069,5.483c-.057,1.011-.085,2.483-.085,4.329v18.816a11.7,11.7,0,0,0,.432,3.751,3.462,3.462,0,0,0,.578,1.126,5.348,5.348,0,0,0,1.011.952,5.194,5.194,0,0,0,1.587.665l2.164.231,2.136-.231a4.133,4.133,0,0,0,2.6-1.617,4.177,4.177,0,0,0,.606-1.126,11.407,11.407,0,0,0,.4-3.751l.029-21.673a11.753,11.753,0,0,1,1.385-4.789,9.363,9.363,0,0,1,3.031-3.261c2.366-1.588,5.568-2.367,9.667-2.4l.635.029a10.03,10.03,0,0,0,3.058-.375,2.837,2.837,0,0,0,.925-.491,4.91,4.91,0,0,0,.75-.78,4.1,4.1,0,0,0,.52-1.269,8.51,8.51,0,0,0,.2-1.759,8.082,8.082,0,0,0-.2-1.761,4.635,4.635,0,0,0-.52-1.3,5.374,5.374,0,0,0-.75-.809,4.63,4.63,0,0,0-.925-.462,9.716,9.716,0,0,0-3.058-.345h-.375A44.6,44.6,0,0,0,250,71.254c-4.271,1.471-7.329,3.666-9.234,6.608a17.424,17.424,0,0,0-1.848,4.156" transform="translate(-53.648 -15.615)" fill="#fff"></path>
    <path id="Path_4926" data-name="Path 4926" d="M203.459,78.914a17.534,17.534,0,0,1,1.355,4.04,20.589,20.589,0,0,1,.492,4.474l.028,1.095a20.469,20.469,0,0,1-.23,3.463,10.411,10.411,0,0,1-1.617,4.791A10.826,10.826,0,0,1,200,100.039c-2.742,1.587-6.436,2.366-11.111,2.366l-6.9-.49V73.893l.577-.115a42.08,42.08,0,0,1,8.022-.894,19.411,19.411,0,0,1,7.907,1.471,10.111,10.111,0,0,1,4.936,4.53v.029Zm8.6-7.734c-2.106-2.654-5.224-4.589-9.465-5.829a44.866,44.866,0,0,0-13.3-1.7l-7.7.376V50.663a12.206,12.206,0,0,0-.434-3.753,4.355,4.355,0,0,0-.577-1.1,3.921,3.921,0,0,0-1.01-.923,4.038,4.038,0,0,0-1.588-.664l-2.163-.289-2.136.289a4,4,0,0,0-1.617.664,3.758,3.758,0,0,0-.98.923,4.38,4.38,0,0,0-.608,1.1,12.215,12.215,0,0,0-.432,3.753l-.029,53.7a11.8,11.8,0,0,0,.461,3.753,2.657,2.657,0,0,0,.578,1.1,4.366,4.366,0,0,0,.982.925,5.744,5.744,0,0,0,2.828.923l1.992.231,9.118.433,3.955-.086c8.455-.491,14.8-2.6,19.046-6.408a21.574,21.574,0,0,0,5.137-6.636,25.719,25.719,0,0,0,2.452-9.265,26.959,26.959,0,0,0,.146-3.029,28.659,28.659,0,0,0-1.184-8.313,21.961,21.961,0,0,0-3.463-6.81" transform="translate(-38.36 -9.914)" fill="#fff"></path>
    <path id="Path_4927" data-name="Path 4927" d="M136.757,72.252a12.117,12.117,0,0,0-.434,3.723v31.657l-.606.088a40.81,40.81,0,0,1-5.454.4c-4.1,0-7.329-.809-9.667-2.4a8.946,8.946,0,0,1-3.03-3.29,10.928,10.928,0,0,1-1.385-4.761l-.029-.029V75.975a11.585,11.585,0,0,0-.433-3.723,3.743,3.743,0,0,0-.577-1.126,5.28,5.28,0,0,0-1.01-.922,4.225,4.225,0,0,0-1.617-.664,8.148,8.148,0,0,0-2.134-.259l-2.136.259a4.847,4.847,0,0,0-1.645.664,5.074,5.074,0,0,0-.982.922,5.8,5.8,0,0,0-.6,1.126,12.281,12.281,0,0,0-.4,3.723V94.849c0,1.7.058,3.145.117,4.328a21.872,21.872,0,0,0,1.067,5.485,15.64,15.64,0,0,0,1.846,4.126q2.988,4.63,9.783,6.781a47.835,47.835,0,0,0,14.515,1.876l9.09-.434,2.02-.232a5.708,5.708,0,0,0,2.828-.922,4.326,4.326,0,0,0,.981-.925,3.073,3.073,0,0,0,.606-1.095,11.939,11.939,0,0,0,.433-3.753l-.029-34.11a12.07,12.07,0,0,0-.434-3.723,3.743,3.743,0,0,0-.577-1.126,4.511,4.511,0,0,0-2.6-1.586l-2.164-.259-2.136.259a4.45,4.45,0,0,0-1.617.664,5.062,5.062,0,0,0-.98.922,4.586,4.586,0,0,0-.606,1.126" transform="translate(-23.603 -15.632)" fill="#fff"></path>
  </g>
</svg>
